# xmcd
#
# Track frame offsets:
#	150
#	12572
#	24831
#	39713
#	55038
#	72820
#	86716
#	99823
#	117790
#	130909
#	142424
#
# Disc length: 2103 seconds
#
# Revision: 1
# Processed by: cddbd v1.5.2PL0 Copyright (c) Steve Scherf et al.
# Submitted via: audiograbber 1.83.01
#
DISCID=9008350b
DTITLE=Roxanne Hall - I Will Fly 
DYEAR=1900
DGENRE=
TTITLE0=It´s Time
TTITLE1=Some Hearts
TTITLE2=Strange World
TTITLE3=Perennial
TTITLE4=Melting
TTITLE5=Fall
TTITLE6=No Mony No Time
TTITLE7=Love Dies Hard
TTITLE8=Video
TTITLE9=I Imagine
TTITLE10=Where R U Running
EXTD=
EXTT0=
EXTT1=
EXTT2=
EXTT3=
EXTT4=
EXTT5=
EXTT6=
EXTT7=
EXTT8=
EXTT9=
EXTT10=
PLAYORDER=
